<svg version="1.1" xmlns="http://www.w3.org/2000/svg" xmlns:xlink="http://www.w3.org/1999/xlink" width="2265.10693" height="3974.2786" viewBox="0,0,2265.10693,3974.2786"><g transform="translate(978.05497,1709.12729)"><g data-paper-data="{&quot;isPaintingLayer&quot;:true}" fill="#ff0000" fill-rule="nonzero" stroke="none" stroke-width="0" stroke-linecap="butt" stroke-linejoin="miter" stroke-miterlimit="10" stroke-dasharray="" stroke-dashoffset="0" style="mix-blend-mode: normal"><g><path d="M-957.73635,2245.53997v-3903.11794h48.321v3903.118z"/><path d="M-964.98076,2265.15131v-71.90815h2180.12456v71.90815z"/><path d="M1153.04131,2261.88271v-3957.93581h65.37107v3957.93585z"/><path d="M-978.05497,-1617.60781v-91.51948h2265.10693v91.51948z"/><path d="M-852.89652,-1047.66008v-104.22055h884.60397v104.22055z"/><path d="M34.24932,-1083.24756v-104.22061h411.7984v104.22061z"/><path d="M448.58971,-1050.202v-99.13663h200.81526v99.13669z"/><path d="M687.53444,-1047.66008v-104.22055h231.31884v104.22055z"/><path d="M918.85334,-1080.70559v-119.4724h66.09113v119.4724z"/><path d="M1025.61587,-1083.24756v-124.5563h139.8081v124.5563z"/><path d="M-916.72112,-718.8959v-427.05019h71.17504v427.05019z"/><path d="M-914.1792,-1178.99167v-73.71702h368.58501v73.71702z"/><path d="M-571.01385,-1229.831v-193.18937h25.41967v193.18937z"/><path d="M-555.76206,-1354.38726v-71.17504h355.8752v71.17504z"/><path d="M-235.47439,-1453.52395v-96.59466h38.12947v96.59466z"/><path d="M-919.2631,-1351.84527v-76.259h246.57069v76.259z"/><path d="M-705.73803,-1410.31051v-134.72418h33.04556v134.72418z"/><path d="M-914.1792,-1489.11144v-40.67145h241.48672v40.67145z"/><path d="M-817.58448,-1514.53106v-111.84645h127.09829v111.84645z"/><path d="M-537.96829,-1453.52395v-188.1054h310.11977v188.1054z"/><path d="M-680.31836,-1453.52395v-43.2134h144.89201v43.2134z"/><path d="M-571.01385,-1478.94356v-73.71697h33.04556v73.71702z"/><path d="M-199.88691,-1255.25062v-152.51796h30.50358v152.51796z"/><path d="M-192.26102,-1219.66308v-71.17504h122.01432v71.17504z"/><path d="M-32.11721,-1219.66308v-66.09108h409.25642v66.09113z"/><path d="M369.5133,-1257.79259v-63.54909h86.42684v63.54914z"/><path d="M450.85623,-1275.58632v-132.1822h35.58755v132.1822z"/><path d="M311.04814,-1318.79976v-106.76254h104.22055v106.76254z"/><path d="M415.26868,-1384.89084v-40.67145h61.00721v40.67145z"/><path d="M-118.54404,-1522.15696v-35.58755h526.18683v35.58755z"/><path d="M384.76511,-1402.68461v-134.72418h27.96166v134.72418z"/><path d="M-128.71187,-1456.06588v-83.88485h30.50358v83.8849z"/><path d="M-128.71187,-1318.79976v-106.76254h401.63053v106.76254z"/><path d="M494.06963,-1229.831v-292.326h152.51791v292.326z"/><path d="M684.71706,-1219.66308v-305.03587h167.7697v305.03587z"/><path d="M722.84654,-1501.82125v-124.5563h71.17499v124.5563z"/><path d="M544.90896,-1489.11144v-149.97598h68.63306v149.97598z"/><path d="M865.08359,-1363.93505v-17.38333h24.70261v17.38333z"/><path d="M848.61511,-1364.84996v-4.57457h2.74477v4.57457z"/><path d="M850.44497,-1216.63415v-151.87547h35.68162v151.87547z"/><path d="M858.6792,-1192.84645v-38.42633h28.36229v38.42633z"/><path d="M869.65815,-1188.27188v-29.27719h96.06581v29.27719z"/><path d="M885.21162,-1147.10083v-46.66051h34.76666v46.66051z"/><path d="M1042.57656,-1184.61221v-32.02195h124.42809v32.02195z"/><path d="M1058.13009,-1294.40172v-121.68332h35.68156v121.68332z"/><path d="M1118.51427,-1199.25083v-122.59823h35.68156v122.59828z"/><path d="M1065.44938,-1277.93329v-41.17104h82.34213v41.17104z"/><path d="M1083.74761,-1253.23063v-33.85176h54.89476v33.85176z"/><path d="M889.7862,-1286.16749v-135.40704h132.66227v135.40704z"/><path d="M792.8055,-1556.23721v-43.9158h128.08775v43.9158z"/><path d="M847.70025,-1363.19071v-168.34383h42.08595v168.34383z"/><path d="M853.18973,-1512.32145v-63.12895h36.59646v63.12895z"/><path d="M876.06253,-1537.02408v-37.51142h28.36229v37.51142z"/><path d="M779.99669,-1516.89598v-54.89471h89.66142v54.89471z"/><path d="M1024.27833,-1453.76702v-41.17104h136.32194v41.17104z"/><path d="M343.07736,-908.45468v-43.51207h241.54786v43.51207z"/><path d="M577.93104,-946.38828v-34.02867h460.94184v34.02867z"/><path d="M1024.54921,-744.65517v-213.94008h18.83751v213.94013z"/><path d="M1027.24031,-725.81766v-34.98392h21.52855v34.98392z"/><path d="M1036.65906,-708.32572v-36.32945h22.87407v36.32945z"/><path d="M1055.49653,-632.97573v-100.91512h24.21965v100.91512z"/><path d="M1066.26081,-606.06502v-43.05712h91.49636v43.05712z"/><path d="M279.5804,-1013.72831v-33.32778h63.38818v33.32783z"/><path d="M337.08722,-947.0727v-77.76487h14.37668v77.76491z"/><path d="M346.88954,-935.96344v-56.8533h17.64411v56.85335z"/><path d="M361.91969,-946.41924v-18.9511h15.68367v18.9511z"/><path d="M176.32959,-931.38908v-15.68367h39.2092v15.68367z"/><path d="M193.32022,-909.17051v-25.48595h44.43709v25.48595z"/><path d="M208.35042,-868.00089v-45.09056h32.67431v45.09056z"/><path d="M207.69689,-673.91542v-199.31336h33.9813v199.31336z"/><path d="M238.41078,-671.95496v-67.96262h296.68281v67.96262z"/><path d="M516.79596,-695.48052v-88.87413h30.06036v88.87413z"/><path d="M682.87256,-810.23579l0.71711,38.04161l-33.65619,31.6943l-105.49259,-1.30283l-27.79831,-43.47797l27.65412,-24.21391l12.49244,0.7077l8.70622,16.07078l66.26519,-0.85661l21.10501,-27.19291l-4.49641,-30.31996l58.99988,-61.55828l43.52295,0.90601l-5.60373,15.67519c0,0 -23.76357,57.09892 -27.26859,60.41498c-0.73032,0.69098 -35.14707,25.4119 -35.14707,25.4119z"/><path d="M920.41867,-707.12616v-100.63494h106.73407v100.63494z"/><path d="M887.38196,-744.7372v-31.51194h33.54499v31.51201z"/><path d="M889.41494,-708.65093v-31.00367h32.02022v31.00367z"/><path d="M33.33625,-503.22424l-14.40224,-26.85789l-2.84284,-71.73739l11.1088,-36.40848l67.52035,1.88409l47.36741,-40.9334l87.03919,80.32998l63.44328,-8.1452l73.4534,-0.73443l50.72326,1.26538c0,0 -7.35836,-15.70874 2.49472,-22.64614c1.17679,-0.82856 14.08318,-10.02709 15.27624,-10.8488c11.84842,-8.16034 37.78932,5.77443 36.93775,10.47078c-0.21833,1.20388 50.98362,-27.82483 64.15392,-8.74886c4.72312,6.841 15.21733,33.28534 5.88813,47.01246c-6.71999,9.88789 -33.6565,6.73574 -33.66627,15.24823c-0.01149,9.9715 26.78166,3.88578 31.27237,11.58079c9.4244,16.14906 0.38367,41.71758 -1.03968,43.94056c-5.04926,7.88621 -31.39069,-3.32627 -54.51974,-2.08185c-17.65654,0.95002 -31.34626,16.14209 -44.67595,11.2532c-24.61739,-9.0288 -22.6309,-35.30477 -22.6309,-35.30477l-37.46284,37.43133l-36.44076,-20.36563l-64.11633,56.75109l-73.2025,-63.92803l-30.57204,32.1307l-69.1731,-0.55787z"/><path d="M794.63297,-620.80702v-50.31688h54.89115v50.31688z"/><path d="M758.03889,-587.12378v-46.99009h57.38618v46.99009z"/><path d="M721.02897,-553.02474v-48.23769h59.88125v48.23769z"/><path d="M791.72212,-548.45052v-46.15844h54.47532v46.15844z"/><path d="M813.34586,-585.0446v-20.79209h24.95052v20.79209z"/><path d="M860.75184,-551.77724v-53.64361h47.40604v53.64361z"/><path d="M931.02916,-552.19307v-51.56441h50.31688v51.56441z"/><path d="M996.73215,-552.60889v-53.22778h51.56441v53.22778z"/><path d="M1066.59364,-555.10397v-42h49.06935v42z"/><path d="M1079.48478,-589.20298v-16.63369h28.69309v16.63369z"/><path d="M1132.29669,-562.58913v-43.24754h32.01982v43.24754z"/><path d="M1098.61351,-516.84648v-52.39612h59.88125v52.39612z"/><path d="M1029.58372,-524.74747v-44.49513h56.97034v44.49513z"/><path d="M1096.11842,-453.6385v-51.98026h59.46536v51.98026z"/><path d="M1064.51445,-488.56922v-45.32678h53.64361v45.32678z"/><path d="M998.39551,-451.97515v-43.24759h50.73276v43.24759z"/><path d="M827.06866,-486.07419v-45.74261h54.47532v45.74261z"/><path d="M760.11813,-486.90585v-44.07926h50.73271v44.07926z"/><path d="M626.21696,-485.24249v-42.83172h47.40598v42.83172z"/><path d="M696.07845,-422.03452v-42.41588h43.24754v42.41588z"/><path d="M793.80132,-383.77707v-44.07926h48.65351v44.07926z"/><path d="M896.9301,-353.42061v-40.75252h47.69897v40.75252z"/><path d="M796.29638,-280.2324v-44.91096h49.48518v44.91096z"/><path d="M659.06849,-284.80667v-40.33668h49.48522v40.33668z"/><path d="M590.87041,-352.58891v-40.33664h50.73271v40.33664z"/><path d="M693.99925,-213.69769v-43.24759h47.40598v43.24759z"/><path d="M899.841,-179.18281v-44.91096h45.74261v44.91096z"/><path d="M994.65296,-115.55896v-38.67333h41.58423v38.67333z"/><path d="M1100.41669,31.5204v-466.77051h56.75796v466.77056z"/><path d="M993.67789,-9.98912v-52.52232h115.21018v52.52232z"/><path d="M457.44236,-2.36495v-55.91085h455.7578v55.91085z"/><path d="M115.20045,-5.75348v-53.36943h257.5286v53.36943z"/><path d="M115.03096,-30.82918v-364.2674h49.13375v364.2674z"/><path d="M160.13239,-48.72867v-45.74317h38.62754v45.74317z"/><path d="M217.66301,-145.06667v-50.59595h50.59595v50.59595z"/><path d="M183.00826,-214.37622v-51.98213h47.82354v51.98213z"/><path d="M353.50966,-179.02836v-51.98217h50.596v51.98217z"/><path d="M420.04681,-147.14597v-52.67524h50.59595v52.67524z"/><path d="M454.70156,-213.76015v-188.52188h49.90283v188.52188z"/><path d="M490.74249,-450.79869v-54.06142h47.82359v54.06142z"/><path d="M380.54035,-436.9368v-64.45785h97.72647v64.45785z"/><path d="M490.76159,-148.82179v-42.15517h46.63974v42.15517z"/><path d="M559.37581,-181.1108v-41.70671h43.50054v41.70671z"/><path d="M624.85081,-147.47642v-43.50054h49.77892v43.50054z"/><path d="M794.81674,-79.31062v-43.94894h47.53664v43.94894z"/><path d="M-162.86236,-775.14254v-34.11929h32.61957v34.11934z"/><path d="M1060.88227,2017.29614v-408.73143h29.8344v408.73143z"/><path d="M1022.09754,2050.11396v-32.81783h34.80681v32.81783z"/><path d="M688.94665,1779.61535v-32.81783h124.31002v32.81783z"/><path d="M791.37816,1748.78645v-36.79575h25.85649v36.79575z"/><path d="M782.42782,1677.18384v-33.81232h34.80681v33.81232z"/><path d="M550.71389,2019.28506v-241.6587h31.8234v241.6587z"/><path d="M683.97424,2053.0974v-33.81232h136.24378v33.81232z"/><path d="M790.38366,2084.92077v-38.78473h231.71388v38.78473z"/><path d="M582.53728,2050.11396v-64.64122h100.44252v64.64122z"/><path d="M543.75255,1778.62086v-104.42038h142.21068v104.42044z"/><path d="M1034.03129,1601.60338v-195.91263h51.71297v195.91263z"/><path d="M1000.21897,1379.83425v-177.01743h41.76815v177.01748z"/><path d="M790.38366,1128.8837v-31.8234h58.67431v31.8234z"/><path d="M618.33858,1175.62426v-50.71853h304.31098v50.71853z"/><path d="M751.59893,1568.44397v-128.28793h168.06716v128.28793z"/><path d="M919.66609,1502.80826v-67.62465h38.78473v67.62465z"/><path d="M890.82613,1455.07321v-290.38821h32.81783v290.38821z"/><path d="M751.59893,1367.55898v-202.87397h145.1941v202.87397z"/><path d="M619.33302,1504.79724v-333.1509h28.83996v333.1509z"/><path d="M646.184,1369.54791v-69.61363h118.34312v69.61363z"/><path d="M595.46551,1382.47616v-26.85098h33.81232v26.85098z"/><path d="M712.81414,1463.02909v-104.42044h42.76265v104.42044z"/><path d="M642.20608,1468.00144v-22.87305h101.43696v22.87305z"/><path d="M641.21158,1518.71998v-59.66885h39.77922v59.66885z"/><path d="M655.13433,1574.41086v-62.65228h30.8289v62.65228z"/><path d="M678.00739,1575.40531v-36.7958h83.53631v36.7958z"/><path d="M544.74703,1506.78617v-46.74056h79.55838v46.74056z"/><path d="M542.75806,1572.42189v-70.60812h37.79023v70.60812z"/><path d="M279.22078,1408.33264v-69.61363h167.07272v69.61363z"/><path d="M242.42503,1363.58106v-61.65779h267.51519v61.65779z"/><path d="M245.40845,1337.72457v-179.00647h27.84542v179.00647z"/><path d="M265.29809,1167.66842v-28.83996h175.02851v28.83996z"/><path d="M423.42045,1130.87268v-25.85649h177.01748v25.85649z"/><path d="M412.48113,1148.77328v-28.83991h30.8289v28.83991z"/><path d="M586.51519,1320.81841v-198.89606h28.83991v198.89606z"/><path d="M550.71389,1363.58106v-56.68538h64.64122v56.68538z"/><path d="M348.83441,1538.60956v-63.64673h24.862v63.64673z"/><path d="M242.42503,1505.79174v-144.19965h33.81232v144.19965z"/><path d="M276.23735,1537.61507v-63.64673h30.8289v63.64673z"/><path d="M414.47011,1540.59855v-69.61363h34.80676v69.61363z"/><path d="M446.2935,2119.82802v-409.72586h64.64122v409.72586z"/><path d="M411.48668,2119.82802v-67.62469h132.26591v67.62469z"/><path d="M477.12235,2200.93339v-81.54738h204.86291v81.54738z"/><path d="M688.94665,2149.22043v-62.65228h63.64673v62.65228z"/><path d="M756.57134,2175.0769v-55.69089h396.79763v55.69089z"/><path d="M1061.87677,2206.9003v-123.31553h59.66881v123.31553z"/><path d="M-914.59334,2226.78988v-89.5032h1404.2061v89.5032z"/><path d="M72.66341,1234.36993v-36.1163h99.92185v36.1163z"/><path d="M142.4883,1640.07666v-414.13389h30.09695v414.13389z"/><path d="M73.86729,1643.6883v-415.33778h71.02877v415.33778z"/><path d="M164.1581,1643.6883v-66.21325h174.56221v66.21325z"/><path d="M379.65217,1647.29995v-73.43653h570.63795v73.43653z"/><path d="M941.86301,1538.95094v-39.728h46.95127v39.728z"/><path d="M921.39711,1590.71768v-92.69856h32.50471v92.69856z"/><path d="M7.34747,1505.71138v-100.52892h28.72256v100.52892z"/><path d="M42.98467,1537.62533v-96.80562h27.12684v96.80562z"/><path d="M-26.1622,1471.13795v-31.38205h28.19066v31.38205z"/><path d="M-227.62545,1360.9352v-468.24624h56.51249v468.24624z"/><path d="M-193.98709,1044.73442v-52.47586h119.75263v52.47586z"/><path d="M-156.31212,1081.06387v-48.43925h117.06158v48.43925z"/><path d="M-154.96654,1009.75054v-48.43925h115.71607v48.43925z"/><path d="M-56.73729,974.76347v-45.29436h51.12434v45.29436z"/><path d="M-20.86057,942.92285v-47.98509h52.02122v47.98509z"/><path d="M456.09306,840.55645v-187.0798h46.91656v187.0798z"/><path d="M247.90084,913.27709v-53.3676h53.36754v53.3676z"/><path d="M312.41109,991.27586v-83.86334h28.14995v83.86334z"/><path d="M325.89959,929.6979v-33.42805h79.17173v33.42805z"/><path d="M381.02656,990.68941v-74.48002h28.14989v74.48002z"/><path d="M785.41119,1089.84114v-364.97424h61.65779v364.97428z"/><path d="M757.56578,949.61945v-49.72399h119.33767v49.72399z"/><path d="M426.40386,1079.89633v-42.76265h736.90987v42.76265z"/><path d="M923.64401,1042.10609v-49.72399h59.66881v49.72399z"/><path d="M984.30731,1112.7142v-61.65779h72.59705v61.65779z"/><path d="M1130.49589,1112.7142v-112.37628h47.73505v112.37628z"/><path d="M1098.67251,775.5854v-50.71847h66.6302v50.71847z"/><path d="M965.29562,636.57017v-50.9915h49.11682v50.9915z"/><path d="M1132.8474,705.78678v-120.187h33.63445v120.187z"/><path d="M1102.96989,573.25841v-57.45824h49.64837v57.45824z"/><path d="M1030.20513,536.44052v-54.11118h52.43765v54.11118z"/><path d="M1098.82036,499.62261v-42.95425h51.87977v42.95425z"/><path d="M1058.65534,790.26101v-31.79727h30.68161v31.79727z"/><path d="M1059.21322,986.18935v-169.58559h21.75604v169.58559z"/><path d="M1077.62215,992.32563v-75.30939h11.71481v75.30939z"/><path d="M1125.59703,993.44134v-49.64841h45.18565v49.64841z"/><path d="M1065.3495,826.64504v-32.91296h101.52819v32.91296z"/><path d="M1024.06884,959.9705v-27.89232h30.12374v27.89232z"/><path d="M856.71466,1028.02789v-31.79727h29.00808v31.79727z"/><path d="M554.81027,449.52782v-27.7238h429.02591v27.7238z"/><path d="M514.61075,417.64544v-205.84926h29.80309v205.84926z"/><path d="M1026.80806,416.95237v-31.18928h137.23282v31.18928z"/><path d="M1129.27077,397.54569v-353.47858h27.03074v353.47858z"/><path d="M991.34483,41.29476v-29.80309h100.49878v29.80309z"/><path d="M517.26769,39.90858v-27.03068h402.68829v27.03068z"/><path d="M515.18839,143.17973v-132.38118h29.10999v132.38118z"/><path d="M582.41866,107.83191v-30.49621h31.18928v30.49621z"/><path d="M651.72817,108.52497v-31.18928h29.10999v31.18928z"/><path d="M720.34461,108.52497v-29.10999h31.18928v29.10999z"/><path d="M585.88413,175.06211v-30.49616h27.03074v30.49616z"/><path d="M653.80746,175.06211v-31.8824h25.6445v31.8824z"/><path d="M722.42385,176.44829v-32.57545h22.87214v32.57545z"/><path d="M924.11457,175.06211v-28.41692h34.65475v28.41692z"/><path d="M992.73101,176.44829v-33.26858h29.10999v33.26858z"/><path d="M1062.73358,177.83447v-33.26858h28.41692v33.26858z"/><path d="M1059.96122,105.0595v-27.7238h27.7238v27.7238z"/><path d="M991.34478,104.36639v-26.33763h29.10999v26.33763z"/><path d="M921.34217,105.75261v-33.26858h25.6445v33.26858z"/><path d="M926.19387,312.98806v-35.34786h27.03074v35.34786z"/><path d="M991.34478,312.98806v-34.65475h27.7238v34.65475z"/><path d="M1062.04052,315.06735v-31.8824h27.7238v31.8824z"/><path d="M988.57241,377.44591v-29.10999h31.8824v29.10999z"/><path d="M926.88693,379.5252v-29.10999h28.41692v29.10999z"/><path d="M621.23194,308.82947v-27.7238h29.80309v27.7238z"/><path d="M619.15265,375.36661v-25.6445h27.7238v25.6445z"/><path d="M686.38292,306.75023v-26.33763h26.33763v26.33763z"/><path d="M687.76909,374.67355v-26.33763h24.25833v26.33763z"/><path d="M799.35741,294.96756v-39.50641h37.42716v39.50641z"/><path d="M797.27811,223.57877v-32.57545h42.97188v32.57545z"/><path d="M799.35741,155.65545v-34.65475h37.42716v34.65475z"/><path d="M800.05053,89.81142v-37.42716h37.42716v37.42716z"/></g></g></g></svg>